<?xml version="1.0" standalone="no"?>
<!DOCTYPE svg PUBLIC "-//W3C//DTD SVG 1.1//EN"
"http://www.w3.org/Graphics/SVG/1.1/DTD/svg11.dtd">

<svg width="100" height="320" view_box="0 0 100 320"
xmlns="http://www.w3.org/2000/svg"
xmlns:link="http://www.w3.org/1999/xlink">\n\n<desc>Généré par Mocodo 2.3.5 le Sun, 18 Jun 2017 14:42:22</desc>

<rect id="frame" x="0" y="0" width="100" height="320" fill="#f7f7f7" stroke="none" stroke-width="0"/>

<!-- Association CONTENIR -->
<line x1="50" y1="252" x2="50" y2="143" stroke="#e08214" stroke-width="2"/>
<text x="55.0" y="185" fill="#542788" font-family="Verdana" font-size="12">0,1</text>
<line x1="50" y1="51" x2="50" y2="143" stroke="#e08214" stroke-width="2"/>
<text x="55.0" y="110" fill="#542788" font-family="Verdana" font-size="12">0,N</text>
<g id="association-CONTENIR">
	<path d="M 76 118 a 14 14 90 0 1 14 14 V 143 h -80 V 132 a 14 14 90 0 1 14 -14" fill="#fdb863" stroke="#fdb863" stroke-width="0"/>
	<path d="M 90 143.0 v 11 a 14 14 90 0 1 -14 14 H 24 a 14 14 90 0 1 -14 -14 V 143.0 H 80" fill="#fee0b6" stroke="#fee0b6" stroke-width="0"/>
	<rect x="10" y="118" width="80" height="50" fill="none" rx="14" stroke="#e08214" stroke-width="2"/>
	<line x1="10" y1="143" x2="90" y2="143" stroke="#e08214" stroke-width="1"/>
	<text x="17" y="135.7" fill="#000000" font-family="Verdana" font-size="12">CONTENIR</text>
</g>

<!-- Entity GARAGE -->
<g id="entity-GARAGE">
	<g id="frame-GARAGE">
		<rect x="9" y="9" width="82" height="25" fill="#b2abd2" stroke="#b2abd2" stroke-width="0"/>
		<rect x="9" y="34.0" width="82" height="59" fill="#d8daeb" stroke="#d8daeb" stroke-width="0"/>
		<rect x="9" y="9" width="82" height="84" fill="none" stroke="#8073ac" stroke-width="2"/>
		<line x1="9" y1="34" x2="91" y2="34" stroke="#8073ac" stroke-width="1"/>
	</g>
	<text x="24" y="26.7" fill="#000000" font-family="Verdana" font-size="12">GARAGE</text>
	<text x="14" y="51.8" fill="#000000" font-family="Verdana" font-size="12">idGarage</text>
	<line x1="14" y1="54" x2="69" y2="54" stroke="#000000" stroke-width="1"/>
	<text x="14" y="68.8" fill="#000000" font-family="Verdana" font-size="12">nomGarage</text>
	<text x="14" y="85.8" fill="#000000" font-family="Verdana" font-size="12">nbPlace</text>
</g>

<!-- Entity VOITURE -->
<g id="entity-VOITURE">
	<g id="frame-VOITURE">
		<rect x="9" y="193" width="82" height="25" fill="#b2abd2" stroke="#b2abd2" stroke-width="0"/>
		<rect x="9" y="218.0" width="82" height="93" fill="#d8daeb" stroke="#d8daeb" stroke-width="0"/>
		<rect x="9" y="193" width="82" height="118" fill="none" stroke="#8073ac" stroke-width="2"/>
		<line x1="9" y1="218" x2="91" y2="218" stroke="#8073ac" stroke-width="1"/>
	</g>
	<text x="22" y="210.7" fill="#000000" font-family="Verdana" font-size="12">VOITURE</text>
	<text x="14" y="235.7" fill="#000000" font-family="Verdana" font-size="12">idVoiture</text>
	<line x1="14" y1="238" x2="69" y2="238" stroke="#000000" stroke-width="1"/>
	<text x="14" y="252.8" fill="#000000" font-family="Verdana" font-size="12">idGarage</text>
	<text x="14" y="269.8" fill="#000000" font-family="Verdana" font-size="12">proprietaire</text>
	<text x="14" y="286.8" fill="#000000" font-family="Verdana" font-size="12">marque</text>
	<text x="14" y="303.8" fill="#000000" font-family="Verdana" font-size="12">vitesseMax</text>
</g>
</svg>